<svg width="268" height="44" viewBox="0 0 134 22" fill="none" xmlns="http://www.w3.org/2000/svg"> <path fill-rule="evenodd" clip-rule="evenodd" d="M76.0352 15.6137L71.3297 2.82422H68.1347C68.122 2.84158 68.1182 2.84779 68.1055 2.86503L74.3566 19.1501H77.7937L83.9357 2.86491C83.923 2.84767 83.9186 2.84146 83.9064 2.82422L80.8002 2.82434L76.0942 15.6137H76.0352Z" fill="black"></path> <path fill-rule="evenodd" clip-rule="evenodd" d="M131.869 11.3629L126.724 8.28063C126.268 8.00722 125.95 7.53257 125.957 7.01161C125.968 6.24046 126.616 5.6161 127.413 5.6161H132.837V2.82422H127.543C125.114 2.82422 123.038 4.75571 123.085 7.11556C123.114 8.55293 123.878 9.85484 125.142 10.6115L130.362 13.7392C130.788 13.9944 131.045 14.434 131.053 14.9187C131.068 15.7106 130.344 16.3583 129.529 16.3583H124.482L122.77 19.1041C122.781 19.1248 122.784 19.1296 122.796 19.1502H129.468C131.896 19.1502 133.973 17.2192 133.926 14.8599C133.897 13.4221 133.133 12.1194 131.869 11.3629Z" fill="black"></path> <path fill-rule="evenodd" clip-rule="evenodd" d="M89.8848 2.75V19.2499V19.25H100.362V19.2499V16.4283H92.7054V12.4108H99.3171V9.58909H92.7054V5.57172H100.362V2.75H89.8848Z" fill="black"></path> <path fill-rule="evenodd" clip-rule="evenodd" d="M111.568 16.3582V2.82422H108.695V19.1503H117.282L118.994 16.4042C118.982 16.3836 118.979 16.3788 118.968 16.3582H111.568Z" fill="black"></path> <path fill-rule="evenodd" clip-rule="evenodd" d="M51.8359 2.75V19.2499V19.25H62.3133V19.2499V16.4282H54.6563V12.4109H61.2683V9.58903H54.6563V5.57183H62.3133V2.75H51.8359Z" fill="black"></path> <path fill-rule="evenodd" clip-rule="evenodd" d="M38.1705 16.3582V2.82422H35.2979V19.1503H43.8839L45.5963 16.4042C45.5845 16.3836 45.5817 16.3788 45.5697 16.3582H38.1705Z" fill="black"></path> <path fill-rule="evenodd" class="green-cl-lo" clip-rule="evenodd" d="M7.57409 0.103516L0 2.37354V21.4925C0.0166305 21.5051 0.0233588 21.51 0.0399894 21.5225L7.61412 19.2522V0.133492C7.59736 0.120938 7.59074 0.11607 7.57409 0.103516Z" fill="#5D7763"></path> <path class="green-cl-lo" d="M9.9082 21.4929V12.6551L17.4823 10.3848L17.5222 10.4147V19.2529L9.94818 21.5229L9.9082 21.4929Z" fill="#5D7763"></path> </svg>